 <svg version="1.1" xmlns="http://www.w3.org/2000/svg" xmlns:xlink="http://www.w3.org/1999/xlink" width="1000" height="1000" fill=" #7f5af0"><defs/><g><path stroke="black" paint-order="fill stroke markers" d=" M 950 500 A 450 450 0 1 1 949.9997750000188 499.55000007499973" stroke-miterlimit="10" stroke-width="7.75" stroke-dasharray=""/><path fill="none" stroke="black" paint-order="fill stroke markers" d=" M 627.2842264805179 163.25272727272727 A 360 360 0 1 1 163.2527272727272 627.2842264805179" stroke-miterlimit="10" stroke-width="7.75" stroke-dasharray=""/><path fill="none" stroke="black" paint-order="fill stroke markers" d=" M 163.25272727272727 372.71577351948207 A 360 360 0 0 1 372.7157735194821 163.2527272727272" stroke-miterlimit="10" stroke-width="7.75" stroke-dasharray=""/><path fill="none" stroke="black" paint-order="fill stroke markers" d=" M 608 860 A 108 108 0 1 1 607.9999460000045 859.892000018" stroke-miterlimit="10" stroke-width="7.75" stroke-dasharray=""/><path fill="#000000" stroke="none" paint-order="stroke fill markers" d=" M 453.46330825985143 792.1189878503911 A 6.875 6.875 0 1 1 453.46330482235174 792.112112851537"/><path fill="#000000" stroke="none" paint-order="stroke fill markers" d=" M 506.875 773.625 A 6.875 6.875 0 1 1 506.8749965625003 773.6181250011458"/><path fill="none" stroke="black" paint-order="fill stroke markers" d=" M 568.3298106954297 760.2210104887811 A 27 27 0 1 1 568.3297971954308 760.1940104932811" stroke-miterlimit="10" stroke-width="7.75" stroke-dasharray=""/><path fill="none" stroke="black" paint-order="fill stroke markers" d=" M 968 500 A 108 108 0 1 1 967.9999460000045 499.8920000179999" stroke-miterlimit="10" stroke-width="7.75" stroke-dasharray=""/><path fill="#000000" stroke="none" paint-order="stroke fill markers" d=" M 798.9939878503911 553.4116917401485 A 6.875 6.875 0 1 1 798.9939844128915 553.4048167412943"/><path fill="#000000" stroke="none" paint-order="stroke fill markers" d=" M 780.5 500 A 6.875 6.875 0 1 1 780.4999965625003 499.9931250011458"/><path fill="none" stroke="black" paint-order="fill stroke markers" d=" M 941 500 A 27 27 0 1 1 940.9999865000011 499.97300000449997" stroke-miterlimit="10" stroke-width="7.75" stroke-dasharray=""/><path fill="none" stroke="black" paint-order="fill stroke markers" d=" M 627.284226480518 163.25272727272727 A 140.4 140.4 0 0 1 372.715773519482 163.2527272727273" stroke-miterlimit="10" stroke-width="7.75" stroke-dasharray=""/><path fill="none" stroke="black" paint-order="fill stroke markers" d=" M 163.25272727272727 372.71577351948196 A 140.4 140.4 0 0 1 163.25272727272727 627.2842264805179" stroke-miterlimit="10" stroke-width="7.75" stroke-dasharray=""/><path fill="none" stroke="black" paint-order="fill stroke markers" d=" M 272.4415587728429 754.5584412271571 A 27 27 0 1 1 272.44154527284405 754.5314412316571" stroke-miterlimit="10" stroke-width="7.75" stroke-dasharray=""/><path fill="none" stroke="black" paint-order="fill stroke markers" d=" M 226.72350935530744 431.8010245566859 L 762.1608334906539 134.25186619275053" stroke-miterlimit="10" stroke-width="7.75" stroke-dasharray=""/><path fill="none" stroke="black" paint-order="fill stroke markers" d=" M 242.56040698489855 522.6533356523771 L 929.2952503588609 634.9280846203743" stroke-miterlimit="10" stroke-width="7.75" stroke-dasharray=""/><path fill="none" stroke="black" paint-order="fill stroke markers" d=" M 238.4169990439586 540.5491105699793 L 883.6459431708811 735.1930914982944" stroke-miterlimit="10" stroke-width="7.75" stroke-dasharray=""/><path fill="none" stroke="black" paint-order="fill stroke markers" d=" M 231.06176831327028 777.4106101907104 L 196.53563785884234 832.2790708279117" stroke-miterlimit="10" stroke-width="7.75" stroke-dasharray="" fill="#7F5AF0"/></g></svg>